<mxfile host="app.diagrams.net" modified="2020-11-04T13:31:32.606Z" agent="5.0 (Windows NT 10.0; Win64; x64) AppleWebKit/537.36 (KHTML, like Gecko) Chrome/86.0.4240.111 Safari/537.36" etag="YLCI754K6Ir8nx9h485L" version="13.8.9-1" type="github">
  <diagram id="C5RBs43oDa-KdzZeNtuy" name="Page-1">
    <mxGraphModel dx="460" dy="752" grid="1" gridSize="10" guides="1" tooltips="1" connect="1" arrows="1" fold="1" page="1" pageScale="1" pageWidth="827" pageHeight="1169" math="0" shadow="0">
      <root>
        <mxCell id="WIyWlLk6GJQsqaUBKTNV-0" />
        <mxCell id="WIyWlLk6GJQsqaUBKTNV-1" parent="WIyWlLk6GJQsqaUBKTNV-0" />
        <mxCell id="pmp_Uk8FcYUjZ9C5s-m5-0" value="warna" style="swimlane;fontStyle=2;align=center;verticalAlign=top;childLayout=stackLayout;horizontal=1;startSize=26;horizontalStack=0;resizeParent=1;resizeLast=0;collapsible=1;marginBottom=0;rounded=0;shadow=0;strokeWidth=1;" vertex="1" parent="WIyWlLk6GJQsqaUBKTNV-1">
          <mxGeometry x="220" y="180" width="380" height="270" as="geometry">
            <mxRectangle x="230" y="140" width="160" height="26" as="alternateBounds" />
          </mxGeometry>
        </mxCell>
        <mxCell id="pmp_Uk8FcYUjZ9C5s-m5-3" value="+normal  :String &#xa;+merah   :String &#xa;+bmerah  :String &#xa;+hijau   :String &#xa;+bhijau  :String &#xa;+kuning  :String &#xa;+bkuning :String &#xa;+birumuda:String &#xa;+ungu    :String &#xa;+bungu   :String &#xa;+biru    :String &#xa;+bbiru   :String &#xa;+putih   :String" style="text;align=left;verticalAlign=top;spacingLeft=4;spacingRight=4;overflow=hidden;rotatable=0;points=[[0,0.5],[1,0.5]];portConstraint=eastwest;" vertex="1" parent="pmp_Uk8FcYUjZ9C5s-m5-0">
          <mxGeometry y="26" width="380" height="204" as="geometry" />
        </mxCell>
        <mxCell id="pmp_Uk8FcYUjZ9C5s-m5-4" value="" style="line;html=1;strokeWidth=1;align=left;verticalAlign=middle;spacingTop=-1;spacingLeft=3;spacingRight=3;rotatable=0;labelPosition=right;points=[];portConstraint=eastwest;" vertex="1" parent="pmp_Uk8FcYUjZ9C5s-m5-0">
          <mxGeometry y="230" width="380" height="8" as="geometry" />
        </mxCell>
        <mxCell id="pmp_Uk8FcYUjZ9C5s-m5-5" value="+hasilTest(warna:String):void" style="text;align=left;verticalAlign=top;spacingLeft=4;spacingRight=4;overflow=hidden;rotatable=0;points=[[0,0.5],[1,0.5]];portConstraint=eastwest;" vertex="1" parent="pmp_Uk8FcYUjZ9C5s-m5-0">
          <mxGeometry y="238" width="380" height="26" as="geometry" />
        </mxCell>
        <mxCell id="pmp_Uk8FcYUjZ9C5s-m5-8" value="Latihan40" style="swimlane;fontStyle=0;align=center;verticalAlign=top;childLayout=stackLayout;horizontal=1;startSize=26;horizontalStack=0;resizeParent=1;resizeLast=0;collapsible=1;marginBottom=0;rounded=0;shadow=0;strokeWidth=1;" vertex="1" parent="WIyWlLk6GJQsqaUBKTNV-1">
          <mxGeometry x="330" y="510" width="160" height="130" as="geometry">
            <mxRectangle x="130" y="380" width="160" height="26" as="alternateBounds" />
          </mxGeometry>
        </mxCell>
        <mxCell id="pmp_Uk8FcYUjZ9C5s-m5-9" value="-nama:String" style="text;align=left;verticalAlign=top;spacingLeft=4;spacingRight=4;overflow=hidden;rotatable=0;points=[[0,0.5],[1,0.5]];portConstraint=eastwest;" vertex="1" parent="pmp_Uk8FcYUjZ9C5s-m5-8">
          <mxGeometry y="26" width="160" height="26" as="geometry" />
        </mxCell>
        <mxCell id="pmp_Uk8FcYUjZ9C5s-m5-14" value="-warnaA:String" style="text;align=left;verticalAlign=top;spacingLeft=4;spacingRight=4;overflow=hidden;rotatable=0;points=[[0,0.5],[1,0.5]];portConstraint=eastwest;" vertex="1" parent="pmp_Uk8FcYUjZ9C5s-m5-8">
          <mxGeometry y="52" width="160" height="26" as="geometry" />
        </mxCell>
        <mxCell id="pmp_Uk8FcYUjZ9C5s-m5-11" value="" style="line;html=1;strokeWidth=1;align=left;verticalAlign=middle;spacingTop=-1;spacingLeft=3;spacingRight=3;rotatable=0;labelPosition=right;points=[];portConstraint=eastwest;" vertex="1" parent="pmp_Uk8FcYUjZ9C5s-m5-8">
          <mxGeometry y="78" width="160" height="8" as="geometry" />
        </mxCell>
        <mxCell id="pmp_Uk8FcYUjZ9C5s-m5-12" value="+main(args:String[]):void" style="text;align=left;verticalAlign=top;spacingLeft=4;spacingRight=4;overflow=hidden;rotatable=0;points=[[0,0.5],[1,0.5]];portConstraint=eastwest;fontStyle=4" vertex="1" parent="pmp_Uk8FcYUjZ9C5s-m5-8">
          <mxGeometry y="86" width="160" height="18" as="geometry" />
        </mxCell>
        <mxCell id="pmp_Uk8FcYUjZ9C5s-m5-13" value="" style="endArrow=block;endSize=10;endFill=0;shadow=0;strokeWidth=1;rounded=0;edgeStyle=elbowEdgeStyle;elbow=vertical;" edge="1" parent="WIyWlLk6GJQsqaUBKTNV-1" source="pmp_Uk8FcYUjZ9C5s-m5-8" target="pmp_Uk8FcYUjZ9C5s-m5-0">
          <mxGeometry width="160" relative="1" as="geometry">
            <mxPoint x="200" y="203" as="sourcePoint" />
            <mxPoint x="200" y="203" as="targetPoint" />
          </mxGeometry>
        </mxCell>
      </root>
    </mxGraphModel>
  </diagram>
</mxfile>
